<svg xmlns="http://www.w3.org/2000/svg" viewBox="0 0 32 32">
	<g stroke="#1d1b29" stroke-width="1.5" stroke-linejoin="round" stroke-linecap="round">
		<rect x="3.5" y="19.5" width="3" height="9.5" rx="0.6" fill="#b5793f"/>
		<rect x="9.5" y="19.5" width="3" height="9.5" rx="0.6" fill="#b5793f"/>
		<rect x="15.5" y="19.5" width="3" height="9.5" rx="0.6" fill="#b5793f"/>
		<rect x="21.5" y="19.5" width="3" height="9.5" rx="0.6" fill="#b5793f"/>
		<rect x="27.5" y="19.5" width="3" height="9.5" rx="0.6" fill="#b5793f"/>
		<rect x="1.5" y="21.4" width="29" height="2.2" rx="0.8" fill="#b9c3d6"/>
		<rect x="1.5" y="25.4" width="29" height="2.2" rx="0.8" fill="#b9c3d6"/>
		<rect x="14.8" y="9" width="2.4" height="13.5" rx="0.4" fill="#f1eee6"/><rect x="14.8" y="15" width="2.4" height="2.2" fill="#e8574a" stroke="none"/><path d="M16 1.5 L22 7.5 L16 13.5 L10 7.5 Z" fill="#f4c542"/><path d="M16 4.6 L18.9 7.5 L16 10.4 L13.1 7.5 Z" fill="#3a3d4f" stroke="none"/><path d="M16 2.9 L11.4 7.5 H12.6 L16 4.1 Z" fill="#fff" stroke="none" fill-opacity="0.6"/>
	</g>
</svg>
